<svg width="14" height="13" viewBox="0 0 14 13" fill="none" xmlns="http://www.w3.org/2000/svg">
<g clip-path="url(#clip0_451_1410)">
<path d="M6.99979 6.46688C7.68893 6.46688 8.36258 6.27709 8.93553 5.92152C9.50848 5.56595 9.95499 5.06057 10.2186 4.46932C10.4822 3.87807 10.551 3.22751 10.4163 2.59994C10.2817 1.97236 9.94957 1.39597 9.46208 0.943684C8.97458 0.491392 8.35357 0.183521 7.6776 0.0590149C7.00164 -0.065491 6.3011 -0.001037 5.66459 0.244223C5.02808 0.489484 4.48421 0.904531 4.10178 1.43686C3.71934 1.96919 3.51553 2.59489 3.51611 3.23479C3.51769 4.09203 3.88531 4.91369 4.53838 5.51959C5.19144 6.12549 6.07662 6.46616 6.99979 6.46688ZM7.86923 5.51076L7.71493 5.56587L7.86923 5.51076Z" fill="white" fill-opacity="0.7"/>
<path d="M9.79228 6.63781C9.69471 6.59916 9.58536 6.5946 9.48445 6.62499C9.38354 6.65538 9.29789 6.71866 9.24332 6.80314C9.01335 7.16658 8.6851 7.46792 8.29109 7.6773C7.89708 7.88667 7.451 7.99682 6.99703 7.99682C6.54307 7.99682 6.09698 7.88667 5.70298 7.6773C5.30897 7.46792 4.98072 7.16658 4.75074 6.80314C4.69663 6.71822 4.61099 6.65457 4.50991 6.62413C4.40884 6.59369 4.29927 6.59855 4.20178 6.63781C2.95314 7.14346 1.89052 7.97641 1.14417 9.03456C0.397825 10.0927 0.000185353 11.3301 0 12.595C0 12.7024 0.0459568 12.8054 0.127761 12.8814C0.209564 12.9574 0.320514 13 0.436202 13H13.5638C13.6795 13 13.7904 12.9574 13.8722 12.8814C13.954 12.8054 14 12.7024 14 12.595C13.9993 11.3295 13.6008 10.0917 12.8533 9.03345C12.1059 7.97523 11.042 7.14263 9.79228 6.63781Z" fill="white" fill-opacity="0.7"/>
</g>
<defs>
<clipPath id="clip0_451_1410">
<rect width="14" height="13" fill="white"/>
</clipPath>
</defs>
</svg>
