<svg width="14" height="9" viewBox="0 0 14 9" fill="none" xmlns="http://www.w3.org/2000/svg">
<g clip-path="url(#clip0_448_1905)">
<path d="M12.8956 -0.000164045H1.11112C0.965559 -0.00189456 0.8211 0.0244324 0.686147 0.0772845C0.551195 0.130137 0.428446 0.208458 0.325044 0.30769C0.221643 0.406921 0.139655 0.525081 0.0838523 0.655291C0.0280499 0.785501 -0.000452075 0.925161 5.42141e-06 1.06614V7.93353C5.42141e-06 8.21633 0.116004 8.48755 0.322484 8.68752C0.528963 8.88749 0.809009 8.99984 1.10102 8.99984H12.8855C13.1778 8.99984 13.4582 8.8876 13.6653 8.68772C13.8723 8.48784 13.989 8.21663 13.9899 7.93353V1.06614C13.9899 0.784465 13.8748 0.51423 13.6698 0.314446C13.4648 0.114661 13.1865 0.00155874 12.8956 -0.000164045ZM11.4478 3.19223L7.30304 5.8694C7.21407 5.92918 7.10829 5.96105 7.00001 5.96071C6.89067 5.96109 6.78381 5.92924 6.69361 5.8694L2.53873 3.19223C2.47418 3.15534 2.41807 3.10611 2.3738 3.04754C2.32954 2.98897 2.29805 2.92229 2.28124 2.85155C2.26445 2.78081 2.26269 2.70751 2.27608 2.63609C2.28948 2.56468 2.31774 2.49665 2.35916 2.43616C2.40057 2.37566 2.45426 2.32397 2.51697 2.28422C2.57968 2.24447 2.65008 2.21749 2.7239 2.20494C2.79772 2.19239 2.8734 2.19453 2.94634 2.21121C3.01927 2.2279 3.08794 2.25879 3.14815 2.30201L7.00001 4.78027L10.8519 2.30201C10.9117 2.25295 10.9817 2.21681 11.0571 2.19598C11.1325 2.17516 11.2116 2.17013 11.2892 2.18123C11.3668 2.19233 11.4411 2.21931 11.507 2.26036C11.573 2.30142 11.6292 2.35561 11.6719 2.41934C11.7145 2.48306 11.7427 2.55486 11.7544 2.62995C11.7662 2.70503 11.7614 2.78169 11.7402 2.85481C11.719 2.92793 11.6819 2.99584 11.6315 3.05402C11.5811 3.1122 11.5185 3.15931 11.4478 3.19223Z" fill="#939393"/>
</g>
<defs>
<clipPath id="clip0_448_1905">
<rect width="14" height="9" fill="white"/>
</clipPath>
</defs>
</svg>
