<svg width="14" height="14" viewBox="0 0 14 14" fill="none" xmlns="http://www.w3.org/2000/svg">
<path d="M12.5446 8.51429C12.0527 8.45729 11.5668 8.35718 11.0925 8.21513C10.8074 8.12665 10.5036 8.11777 10.2139 8.18946C9.92422 8.26114 9.65963 8.41066 9.44875 8.62185L8.55127 9.51597C6.83595 8.56902 5.42533 7.15374 4.48405 5.4353L5.37816 4.54118C5.58932 4.32958 5.73878 4.0644 5.81045 3.77418C5.88211 3.48396 5.87328 3.17969 5.78489 2.89412C5.63989 2.42511 5.53972 1.9434 5.48573 1.45547C5.44023 1.05436 5.24843 0.684119 4.94703 0.415586C4.64563 0.147052 4.25579 -0.00091325 3.85211 4.24136e-06H1.64371C1.42729 2.43122e-06 1.213 0.0427397 1.01314 0.125763C0.813277 0.208787 0.631778 0.330462 0.479058 0.483806C0.326339 0.637151 0.205405 0.819145 0.123198 1.01934C0.0409908 1.21954 -0.000871405 1.43401 1.37491e-05 1.65042C1.37491e-05 1.70084 1.37491e-05 1.7479 1.37491e-05 1.79832C0.144678 3.37669 0.569231 4.91669 1.2538 6.34622C1.91849 7.73412 2.81543 8.99824 3.9059 10.084C4.9933 11.1762 6.26125 12.0723 7.65379 12.7328C9.08319 13.4139 10.6217 13.8372 12.1983 13.9832C12.4267 14.0025 12.6567 13.9749 12.874 13.9021C13.0914 13.8292 13.2916 13.7127 13.4622 13.5597C13.6313 13.4059 13.7664 13.2186 13.859 13.0096C13.9516 12.8007 13.9997 12.5748 14 12.3462V10.1479C14.0009 9.74423 13.853 9.35439 13.5844 9.05299C13.3159 8.75158 12.9457 8.55978 12.5446 8.51429Z" fill="white" fill-opacity="0.7"/>
</svg>
