<svg width="115" height="90" viewBox="0 0 115 90" fill="none" xmlns="http://www.w3.org/2000/svg">
<g clip-path="url(#clip0_18_191)">
<path d="M8.74709 75.2127C9.19517 75.7598 9.43386 76.4449 9.42135 77.148C9.44421 77.6067 9.36218 78.0646 9.18132 78.4877C9.00047 78.9109 8.72542 79.2885 8.37656 79.5926C7.5061 80.2411 6.4277 80.5581 5.33937 80.4854H0V68.2205H5.23003C6.2624 68.1528 7.28658 68.4408 8.12751 69.0354C8.46527 69.3142 8.73272 69.6667 8.90876 70.0649C9.08481 70.4632 9.16463 70.8963 9.14193 71.3302C9.17262 72.0067 8.95719 72.6719 8.53449 73.2056C8.12868 73.6929 7.56787 74.0307 6.94301 74.1642C7.65137 74.2917 8.29076 74.6633 8.74709 75.2127ZM2.48442 73.3613H4.71979C5.22783 73.3984 5.73241 73.2538 6.14119 72.9539C6.30903 72.8039 6.43961 72.6178 6.52282 72.41C6.60604 72.2022 6.63965 71.9783 6.62106 71.7556C6.63684 71.5337 6.60253 71.3112 6.5206 71.1039C6.43867 70.8967 6.31116 70.71 6.14726 70.5573C5.72625 70.2489 5.20599 70.102 4.68334 70.1438H2.48442V73.3613ZM6.35987 78.0647C6.53927 77.9112 6.68031 77.7188 6.77197 77.5026C6.86364 77.2865 6.90346 77.0523 6.88834 76.8185C6.90202 76.5819 6.86038 76.3454 6.76664 76.1273C6.6729 75.9091 6.52957 75.7151 6.34772 75.5603C5.91037 75.2404 5.37249 75.0834 4.82912 75.1169H2.48442V78.4902H4.8595C5.39409 78.5206 5.92326 78.3706 6.35987 78.0647Z" fill="#403449" fill-opacity="0.7"/>
<path d="M19.438 80.4853L16.5283 75.692H15.435V80.4853H12.9323V68.2204H17.6703C18.8646 68.1382 20.0453 68.5114 20.9687 69.263C21.631 69.9286 22.0305 70.8057 22.0951 71.7362C22.1597 72.6667 21.8852 73.5894 21.321 74.3379C20.7365 74.9984 19.938 75.4388 19.0614 75.5841L22.1593 80.4853H19.438ZM15.435 74.0203H17.482C18.9034 74.0203 19.6141 73.4012 19.6141 72.1629C19.6286 71.91 19.5897 71.657 19.4997 71.4197C19.4098 71.1825 19.2709 70.9663 19.0917 70.7848C18.6425 70.4163 18.0641 70.2376 17.482 70.2875H15.4107L15.435 74.0203Z" fill="#403449" fill-opacity="0.7"/>
<path d="M33.1175 78.0168H28.1304L27.2496 80.4853H24.6255L29.2056 68.3583H32.0423L36.6041 80.4853H33.98L33.1175 78.0168ZM32.4493 76.1594L30.627 70.9826L28.8047 76.1594H32.4493Z" fill="#403449" fill-opacity="0.7"/>
<path d="M50.2411 80.4853H47.7567L42.1865 72.145V80.4853H39.7082V68.2205H42.1865L47.7567 76.6087V68.2205H50.2411V80.4853Z" fill="#403449" fill-opacity="0.7"/>
<path d="M64.4187 77.5495C63.9051 78.4755 63.1223 79.2287 62.1712 79.7124C61.0897 80.2512 59.8896 80.5168 58.6784 80.4854H54.2563V68.2205H58.6784C59.8875 68.1894 61.0861 68.4485 62.1712 68.9755C63.1222 69.4482 63.9057 70.194 64.4187 71.1145C64.9301 72.112 65.1966 73.2142 65.1966 74.332C65.1966 75.4498 64.9301 76.5519 64.4187 77.5495ZM61.5759 77.2559C62.285 76.4411 62.6748 75.4028 62.6748 74.329C62.6748 73.2552 62.285 72.2169 61.5759 71.4021C60.7189 70.6641 59.6013 70.2894 58.4658 70.3595H56.7407V78.2984H58.4658C59.6013 78.3685 60.7189 77.9939 61.5759 77.2559Z" fill="#403449" fill-opacity="0.7"/>
<path d="M34.6725 0C34.6725 0 66.7391 11.9413 66.0588 29.2211V58.4482C66.0588 58.4482 34.0165 46.5009 34.6846 29.2211L34.6725 0Z" fill="#403449" fill-opacity="0.7"/>
<path d="M94.6265 51.6057C100.683 47.4948 107.688 44.9485 115 44.2001V35.0509C106.574 38.254 99.4268 44.0619 94.6265 51.6057Z" fill="#403449" fill-opacity="0.7"/>
<path d="M90.988 54.3619C95.9448 44.5169 104.538 36.92 115 33.1336V6.77051C115 6.77051 69.3329 23.7807 70.2987 48.3882V90C70.2987 90 72.3336 89.239 75.5348 87.813C75.5348 86.4829 75.5348 85.1408 75.6806 83.7927C76.6257 72.3687 82.1317 61.7825 90.988 54.3619Z" fill="#403449" fill-opacity="0.7"/>
<path d="M86.6449 69.8202C86.8848 66.9343 87.42 64.0798 88.2424 61.3002C82.7279 67.7086 79.3884 75.6607 78.6935 84.0383C78.6267 84.8292 78.5902 85.6201 78.572 86.435C81.1658 85.2067 84.1847 83.6728 87.3556 81.8694C86.5464 77.9058 86.3071 73.8496 86.6449 69.8202Z" fill="#403449" fill-opacity="0.7"/>
<path d="M88.4611 69.97C88.1571 73.6156 88.347 77.2848 89.026 80.8808C101.503 73.5171 115.522 62.139 114.982 48.3883V47.1899C106.068 48.1738 97.7276 52.0175 91.2431 58.1306C89.7249 61.9189 88.7873 65.9092 88.4611 69.97Z" fill="#403449" fill-opacity="0.7"/>
</g>
<defs>
<clipPath id="clip0_18_191">
<rect width="115" height="90" fill="white"/>
</clipPath>
</defs>
</svg>
