<svg width="93" height="100" viewBox="0 0 93 100" fill="none" xmlns="http://www.w3.org/2000/svg">
<g clip-path="url(#clip0_18_202)">
<path d="M44.1436 40.0403L44.7307 39.0266L56.9475 17.9927L46.5027 0L23.2487 40.0403L46.5027 80.0807L56.9475 62.0933L44.7307 41.0594L44.1436 40.0403Z" fill="#403449" fill-opacity="0.7"/>
<path d="M31.9269 59.0468L23.2487 73.9929L3.53854 40.0403L23.2487 6.09309L31.9269 21.0339L33.6935 17.9927L23.2487 0L0 40.0403L23.2487 80.0807L33.6935 62.0933L31.9269 59.0468Z" fill="#403449" fill-opacity="0.7"/>
<path d="M69.2229 35.1521L69.2389 35.1627V28.7034L54.5778 53.9515L56.4404 57.1626L69.2229 35.1521Z" fill="#403449" fill-opacity="0.7"/>
<path d="M69.223 26.3203L69.239 26.3309V19.8716L52.016 49.5409L53.8787 52.7467L69.223 26.3203Z" fill="#403449" fill-opacity="0.7"/>
<path d="M48.7496 43.9149L69.223 8.66201L69.239 8.67262V0.881104L46.5027 40.0404L48.7496 43.9149Z" fill="#403449" fill-opacity="0.7"/>
<path d="M69.2229 17.4884L69.2389 17.4991V11.045L49.4487 45.125L51.3114 48.3307L69.2229 17.4884Z" fill="#403449" fill-opacity="0.7"/>
<path d="M70.2583 0.881104V79.205L92.9999 40.0404L70.2583 0.881104Z" fill="#403449" fill-opacity="0.7"/>
<path d="M69.223 43.9786L69.239 43.9892V37.5352L57.1396 58.3674L59.0023 61.5785L69.223 43.9786Z" fill="#403449" fill-opacity="0.7"/>
<path d="M69.2229 52.8104L69.2389 52.821V46.3617L59.7068 62.7833L61.5695 65.9891L69.2229 52.8104Z" fill="#403449" fill-opacity="0.7"/>
<path d="M69.239 70.7977L66.7999 75.0013L69.239 79.2049V70.7977Z" fill="#403449" fill-opacity="0.7"/>
<path d="M66.0953 73.7911L69.2229 68.4146L69.2389 68.4252V64.0199L64.8304 71.615L66.0953 73.7911Z" fill="#403449" fill-opacity="0.7"/>
<path d="M69.223 61.6369L69.239 61.6528V55.1935L62.2687 67.1992L64.1313 70.405L69.223 61.6369Z" fill="#403449" fill-opacity="0.7"/>
<path d="M24.4122 95.4142C24.8226 95.891 25.0429 96.501 25.0313 97.1286C25.0476 97.521 24.9761 97.9121 24.822 98.2738C24.6678 98.6354 24.4349 98.9585 24.14 99.2198C23.4057 99.7892 22.4858 100.069 21.5568 100.005H17.5699V89.3264H21.4981C22.374 89.2641 23.2433 89.5165 23.9479 90.0376C24.2273 90.2787 24.448 90.5798 24.5932 90.9182C24.7383 91.2566 24.8042 91.6234 24.7858 91.9908C24.8184 92.5925 24.6286 93.1853 24.2521 93.6574C23.8759 94.0836 23.3664 94.3715 22.8057 94.4748C23.4342 94.594 24.0019 94.926 24.4122 95.4142ZM18.9523 94.0024H21.2686C21.828 94.0413 22.3824 93.8751 22.827 93.5353C23.1722 93.1885 23.3658 92.7203 23.3658 92.2323C23.3658 91.7444 23.1722 91.2761 22.827 90.9293C22.3574 90.5822 21.7772 90.4163 21.1939 90.4623H18.9523V94.0024ZM22.9978 98.3493C23.1892 98.1683 23.3416 97.9506 23.4457 97.7093C23.5498 97.4679 23.6035 97.2081 23.6035 96.9455C23.6035 96.6828 23.5498 96.423 23.4457 96.1817C23.3416 95.9403 23.1892 95.7226 22.9978 95.5416C22.508 95.1685 21.9009 94.9804 21.2846 95.0108H18.9523V98.827H21.3006C21.9053 98.8721 22.5066 98.7029 22.9978 98.3493Z" fill="#403449" fill-opacity="0.7"/>
<path d="M35.5081 100L32.7061 95.6371H31.1956V100H29.808V89.3264H33.3412C34.335 89.248 35.32 89.5606 36.0845 90.1969C36.391 90.4965 36.6306 90.8569 36.7878 91.2547C36.9451 91.6525 37.0164 92.0787 36.9971 92.5057C37.0417 93.2812 36.7793 94.0432 36.2659 94.6287C35.6958 95.2017 34.9388 95.5536 34.1311 95.6212L37.0505 100.027L35.5081 100ZM31.1956 94.6393H33.2238C34.7929 94.6393 35.5828 93.9546 35.5828 92.58C35.5828 91.2053 34.7929 90.5206 33.2238 90.5206H31.1956V94.6393Z" fill="#403449" fill-opacity="0.7"/>
<path d="M48.0344 97.532H43.3003L42.4037 100H40.9093L44.8855 89.5228H46.4333L50.3934 100H48.899L48.0344 97.532ZM47.6395 96.4704L45.6754 91.0833L43.7113 96.4704H47.6395Z" fill="#403449" fill-opacity="0.7"/>
<path d="M63.2027 99.9999H61.8204L56.2484 91.5662V99.9999H54.8607V89.3264H56.2484L61.8204 97.7761V89.3264H63.2027V99.9999Z" fill="#403449" fill-opacity="0.7"/>
<path d="M76.855 97.4789C76.4167 98.2791 75.745 98.9286 74.9283 99.3418C73.9793 99.8037 72.9317 100.03 71.8755 100H68.4757V89.3264H71.8862C72.9406 89.2971 73.9869 89.5172 74.939 89.9687C75.7538 90.3758 76.4228 91.0226 76.855 91.821C77.2838 92.7041 77.5065 93.672 77.5065 94.6526C77.5065 95.6332 77.2838 96.6011 76.855 97.4842V97.4789ZM74.9817 97.6859C75.6969 96.8351 76.0888 95.7615 76.0888 94.6526C76.0888 93.5437 75.6969 92.4701 74.9817 91.6193C74.5445 91.2414 74.0366 90.953 73.487 90.7709C72.9375 90.5887 72.3572 90.5163 71.7794 90.5578H69.858V98.7792H71.7794C72.361 98.8161 72.9441 98.7385 73.4954 98.5509C74.0468 98.3633 74.5555 98.0693 74.9924 97.6859H74.9817Z" fill="#403449" fill-opacity="0.7"/>
</g>
<defs>
<clipPath id="clip0_18_202">
<rect width="93" height="100" fill="white"/>
</clipPath>
</defs>
</svg>
