<svg width="91" height="90" viewBox="0 0 91 90" fill="none" xmlns="http://www.w3.org/2000/svg">
<g clip-path="url(#clip0_18_180)">
<path d="M66.2149 0H22.5312L0.691956 37.1068L22.5312 74.2186H66.2149L88.0542 37.1068L66.2149 0ZM64.2855 70.3775L64.12 70.6566H24.6262L4.88187 37.1068L24.6262 3.55186H24.9572L29.4316 11.163L34.2009 3.04445H34.832L29.7472 11.6704L32.1473 15.7297L39.6271 3.04445H40.4651L32.5663 16.4857L34.832 20.2963L44.9498 3.04445H46.212L35.4372 21.3619L37.4649 24.8123L50.2674 3.04445H51.9434L38.3029 26.2381L40.1547 29.3789L55.6419 3.04445H57.7109L41.1582 31.1397L42.7721 33.8797L60.9646 3.04445H63.4785L44.0705 36.026L45.6223 38.6696L65.0614 5.63223L66.7374 8.47879L47.2982 41.5212L64.2855 70.3775Z" fill="#F6B217" fill-opacity="0.7"/>
<path d="M6.89923 86.9241C7.12963 87.2362 7.24789 87.6146 7.23546 87.9998C7.2469 88.2662 7.18933 88.5311 7.06812 88.7698C6.9469 89.0085 6.76601 89.2132 6.54231 89.3647C5.9328 89.7256 5.22491 89.8939 4.5146 89.8468H1.06439V83.0373H4.31287C4.97881 82.9956 5.64122 83.1607 6.20608 83.5092C6.42376 83.651 6.60142 83.8444 6.72259 84.0715C6.84376 84.2985 6.90452 84.5519 6.89923 84.8082C6.90595 85.1218 6.82356 85.431 6.66128 85.7012C6.50558 85.9599 6.27761 86.1694 6.00435 86.305C6.35872 86.4196 6.67026 86.6351 6.89923 86.9241ZM2.3524 84.0319V85.9093H4.17837C4.53941 85.9289 4.89857 85.8461 5.21292 85.6708C5.32516 85.5902 5.41645 85.4848 5.47939 85.3632C5.54232 85.2415 5.57511 85.107 5.57511 84.9706C5.57511 84.8341 5.54232 84.6996 5.47939 84.578C5.41645 84.4563 5.32516 84.3509 5.21292 84.2703C4.89946 84.0928 4.53962 84.0099 4.17837 84.0319H2.3524ZM5.9371 87.8729C5.9371 87.2184 5.41983 86.8886 4.43701 86.8886H2.36792V88.8573H4.43701C5.43535 88.8573 5.9371 88.5275 5.9371 87.8729Z" fill="#F6B217" fill-opacity="0.7"/>
<path d="M15.1394 89.8468L13.722 87.8527H13.4531H11.9012V89.8366H10.5977V83.0374H13.4531C13.9857 83.027 14.5146 83.1273 15.0049 83.3316C15.4261 83.5024 15.7862 83.7921 16.0394 84.1638C16.284 84.5519 16.408 85.0015 16.3963 85.4577C16.409 85.927 16.2755 86.389 16.0136 86.782C15.7461 87.1643 15.3623 87.4538 14.9169 87.6091L16.5153 89.8468H15.1394ZM14.6583 84.4581C14.2861 84.2008 13.8349 84.0772 13.3806 84.108H11.8857V86.8226H13.3962C13.8513 86.8545 14.3034 86.7288 14.6738 86.4674C14.8208 86.3424 14.9365 86.1858 15.0118 86.0098C15.0872 85.8338 15.1202 85.6431 15.1083 85.4526C15.1167 85.264 15.0804 85.0761 15.0023 84.9036C14.9242 84.731 14.8065 84.5785 14.6583 84.4581Z" fill="#F6B217" fill-opacity="0.7"/>
<path d="M24.3365 88.2891H20.8656L20.1777 89.862H18.8483L21.9519 83.0526H23.2451L26.3798 89.862H25.0297L24.3365 88.2891ZM23.9072 87.2743L22.5985 84.2958L21.3001 87.2743H23.9072Z" fill="#F6B217" fill-opacity="0.7"/>
<path d="M35.4165 83.0374V89.8468H34.3819L30.5231 85.2446V89.8569H29.2454V83.0374H30.28L34.1078 87.6497V83.0374H35.4165Z" fill="#F6B217" fill-opacity="0.7"/>
<path d="M39.265 83.0374H42.3014C42.9828 83.0255 43.6576 83.1697 44.2722 83.4586C44.8262 83.724 45.2911 84.1396 45.612 84.6561C45.9204 85.1991 46.0824 85.8104 46.0824 86.432C46.0824 87.0536 45.9204 87.6649 45.612 88.2079C45.2927 88.7257 44.8274 89.1416 44.2722 89.4054C43.6584 89.6966 42.983 89.8409 42.3014 89.8265H39.265V83.0374ZM42.2393 88.7965C42.7043 88.8079 43.1653 88.7105 43.5842 88.5124C43.9569 88.3309 44.2678 88.0471 44.4791 87.6954C44.6917 87.3185 44.7988 86.8931 44.7895 86.4624C44.7993 86.0333 44.6922 85.6094 44.4791 85.2345C44.2715 84.88 43.9596 84.5953 43.5842 84.4176C43.1658 84.2177 42.7047 84.1185 42.2393 84.1284H40.553V88.7965H42.2393Z" fill="#F6B217" fill-opacity="0.7"/>
<path d="M60.3335 83.0374V89.8468H59.299L55.4401 85.2446V89.8569H54.1625V83.0374H55.197L59.0248 87.6497V83.0374H60.3335Z" fill="#F6B217" fill-opacity="0.7"/>
<path d="M68.6823 88.2891H65.2114L64.5286 89.862H63.1992L66.3029 83.0526H67.5754L70.679 89.862H69.3341L68.6823 88.2891ZM68.2581 87.2743L66.9494 84.2958L65.6511 87.2743H68.2581Z" fill="#F6B217" fill-opacity="0.7"/>
<path d="M79.9744 89.8468V85.3359L77.6932 89.0704H77.1139L74.8327 85.3917V89.8468H73.6068V83.0374H74.662L77.419 87.5533L80.1244 83.0374H81.19V89.8468H79.9744Z" fill="#F6B217" fill-opacity="0.7"/>
<path d="M90.2578 88.7964V89.8569H85.054V83.0374H90.1181V84.0978H86.342V85.8687H89.694V86.9089H86.342V88.7964H90.2578Z" fill="#F6B217" fill-opacity="0.7"/>
</g>
<defs>
<clipPath id="clip0_18_180">
<rect width="89.5658" height="89.8468" fill="white" transform="translate(0.691956)"/>
</clipPath>
</defs>
</svg>
