<svg width="115" height="81" viewBox="0 0 115 81" fill="none" xmlns="http://www.w3.org/2000/svg">
<g clip-path="url(#clip0_18_168)">
<path d="M23.5127 24.5697H23.5076C19.2381 24.5697 15.7769 27.9921 15.7769 32.2137V32.2188C15.7769 36.4405 19.2381 39.8628 23.5076 39.8628H23.5127C27.7823 39.8628 31.2435 36.4405 31.2435 32.2188V32.2137C31.2435 27.9921 27.7823 24.5697 23.5127 24.5697Z" fill="#0064AA" fill-opacity="0.7"/>
<path d="M80.5736 22.1259C80.5615 16.2623 78.2007 10.6422 74.008 6.49553C69.8152 2.34886 64.1319 0.0133141 58.2018 0V0C52.2699 0.010652 46.584 2.34503 42.389 6.49198C38.1941 10.6389 35.8319 16.2605 35.8198 22.1259V54.4606C35.8198 54.4606 80.5685 49.5325 80.5736 22.1309V22.1259Z" fill="#0064AA" fill-opacity="0.7"/>
<path d="M0.106445 65.0726C0.117201 69.1525 1.76074 73.0623 4.67794 75.9477C7.59513 78.8331 11.5488 80.4595 15.675 80.4715C19.8003 80.4595 23.7532 78.8339 26.6702 75.9495C29.5873 73.0652 31.2314 69.1566 31.2435 65.0776V42.5789C31.2435 42.5789 0.106445 46.0104 0.106445 65.0726ZM15.675 69.1037C14.8686 69.1037 14.0804 68.8673 13.41 68.4243C12.7396 67.9814 12.217 67.3518 11.9084 66.6152C11.5999 65.8786 11.5191 65.0681 11.6764 64.2861C11.8338 63.5042 12.222 62.7859 12.7922 62.2221C13.3624 61.6584 14.0888 61.2744 14.8796 61.1189C15.6705 60.9634 16.4902 61.0432 17.2351 61.3483C17.9801 61.6534 18.6168 62.1701 19.0648 62.833C19.5127 63.4959 19.7518 64.2753 19.7518 65.0726C19.7539 65.6032 19.6499 66.129 19.4459 66.6199C19.2419 67.1107 18.9419 67.5569 18.5632 67.9328C18.1844 68.3087 17.7343 68.607 17.2387 68.8105C16.743 69.0141 16.2116 69.1188 15.675 69.1188V69.1037Z" fill="#0064AA" fill-opacity="0.7"/>
<path d="M38.7398 70.8674C37.935 70.4433 37.2633 69.8089 36.7982 69.0332C36.3238 68.226 36.0807 67.3062 36.095 66.3726C36.0785 65.4375 36.3255 64.5163 36.8084 63.7121C37.2782 62.9309 37.9548 62.2915 38.7653 61.8628C39.621 61.412 40.5783 61.1832 41.5478 61.1977C42.3302 61.1874 43.1066 61.333 43.8308 61.626C44.5038 61.9024 45.101 62.3323 45.5737 62.8807L44.3455 63.9943C44.0043 63.6159 43.5846 63.3147 43.1149 63.1112C42.6453 62.9078 42.1369 62.8068 41.6242 62.8152C40.9701 62.8043 40.3241 62.9605 39.7489 63.2687C39.207 63.5609 38.7586 63.9973 38.4545 64.5284C38.1503 65.0893 37.9911 65.716 37.9911 66.3525C37.9911 66.989 38.1503 67.6156 38.4545 68.1766C38.7586 68.7077 39.207 69.1441 39.7489 69.4363C40.3241 69.7445 40.9701 69.9007 41.6242 69.8898C42.1381 69.8963 42.6472 69.7929 43.1169 69.5868C43.5866 69.3807 44.0057 69.0767 44.3455 68.6956L45.5635 69.8445C45.0866 70.3927 44.4861 70.8225 43.8105 71.0991C43.0845 71.3921 42.3063 71.5377 41.5223 71.5274C40.5531 71.5457 39.5952 71.3185 38.7398 70.8674Z" fill="#0064AA" fill-opacity="0.7"/>
<path d="M49.1155 70.8673C48.3021 70.4457 47.6217 69.8112 47.1484 69.0331C46.6843 68.2242 46.4403 67.3101 46.4403 66.3801C46.4403 65.4501 46.6843 64.536 47.1484 63.7271C47.6222 62.9443 48.3021 62.3034 49.1155 61.8728C49.9839 61.4364 50.9442 61.209 51.9183 61.209C52.8924 61.209 53.8528 61.4364 54.7212 61.8728C55.5341 62.2999 56.2128 62.9396 56.6831 63.7221C57.1471 64.5323 57.3901 65.4478 57.3883 66.3789C57.3866 67.31 57.14 68.2246 56.673 69.0331C56.204 69.8154 55.5248 70.4538 54.711 70.8773C53.8435 71.3169 52.8828 71.5461 51.9081 71.5461C50.9334 71.5461 49.9727 71.3169 49.1053 70.8773L49.1155 70.8673ZM53.7529 69.4463C54.2884 69.1485 54.7309 68.711 55.032 68.1815C55.3362 67.6224 55.4955 66.9974 55.4955 66.3625C55.4955 65.7276 55.3362 65.1026 55.032 64.5434C54.7309 64.0139 54.2884 63.5764 53.7529 63.2786C53.1892 62.9809 52.56 62.8251 51.9209 62.8251C51.2818 62.8251 50.6525 62.9809 50.0888 63.2786C49.5522 63.5749 49.1094 64.0128 48.8097 64.5434C48.5019 65.1014 48.3407 65.7269 48.3407 66.3625C48.3407 66.9981 48.5019 67.6235 48.8097 68.1815C49.1094 68.7121 49.5522 69.15 50.0888 69.4463C50.6525 69.744 51.2818 69.8998 51.9209 69.8998C52.56 69.8998 53.1892 69.744 53.7529 69.4463Z" fill="#0064AA" fill-opacity="0.7"/>
<path d="M68.7609 71.3964V64.7249L65.4127 70.2677H64.5719L61.2288 64.8357V71.4216H59.4248V61.3438H60.9537L65.005 68.0254L68.9749 61.3538H70.5343V71.4317L68.7609 71.3964Z" fill="#0064AA" fill-opacity="0.7"/>
<path d="M79.7888 61.762C80.4028 62.0168 80.9261 62.4465 81.2921 62.9965C81.6357 63.5756 81.8169 64.2349 81.8169 64.9063C81.8169 65.5777 81.6357 66.2369 81.2921 66.816C80.9281 67.3701 80.4045 67.8037 79.7888 68.0606C79.0597 68.3611 78.275 68.507 77.4854 68.4889H75.187V71.3964H73.2964V61.3186H77.4854C78.2761 61.3052 79.0609 61.4563 79.7888 61.762ZM79.2792 66.3927C79.4821 66.2017 79.6436 65.9718 79.754 65.7172C79.8644 65.4625 79.9213 65.1884 79.9213 64.9113C79.9213 64.6343 79.8644 64.3601 79.754 64.1054C79.6436 63.8508 79.4821 63.6209 79.2792 63.4299C78.732 63.0521 78.0691 62.874 77.4038 62.926H75.1972V66.9218H77.4038C78.0685 66.9621 78.727 66.7753 79.269 66.3927H79.2792Z" fill="#0064AA" fill-opacity="0.7"/>
<path d="M89.7975 69.0634H84.7014L83.6822 71.3964H81.7304L86.3169 61.3186H88.1769L92.7634 71.3964H90.8167L89.7975 69.0634ZM89.1758 67.5971L87.2494 63.1981L85.3435 67.5971H89.1758Z" fill="#0064AA" fill-opacity="0.7"/>
<path d="M103.134 61.3286V71.4064H101.605L95.9994 64.5888V71.4064H94.1241V61.3286H95.6784L101.284 68.1463V61.3286H103.134Z" fill="#0064AA" fill-opacity="0.7"/>
<path d="M110.258 67.844V71.3964H108.368V67.8692L104.367 61.3186H106.406L109.387 66.2215L112.399 61.3186H114.259L110.258 67.844Z" fill="#0064AA" fill-opacity="0.7"/>
</g>
<defs>
<clipPath id="clip0_18_168">
<rect width="114.137" height="80.4715" fill="white" transform="translate(0.106445)"/>
</clipPath>
</defs>
</svg>
