<svg width="85" height="92" viewBox="0 0 85 92" fill="none" xmlns="http://www.w3.org/2000/svg">
<g clip-path="url(#clip0_18_220)">
<path d="M13.1552 90.2588C13.1864 90.2597 13.217 90.2667 13.2454 90.2794C13.2738 90.2921 13.2993 90.3103 13.3206 90.3329L13.7472 90.7986C13.416 91.1756 13.0067 91.477 12.5473 91.6824C12.0094 91.9066 11.4296 92.0148 10.8463 92C10.2982 92.0112 9.75363 91.9103 9.24653 91.7036C8.7891 91.5138 8.37811 91.2286 8.04138 90.8674C7.69772 90.4928 7.43302 90.0538 7.26284 89.5761C7.07647 89.0437 6.98445 88.4833 6.99088 87.9197C6.98332 87.3524 7.08279 86.7888 7.28417 86.2579C7.47045 85.7772 7.75144 85.3382 8.1107 84.9666C8.47483 84.6022 8.91041 84.3158 9.3905 84.1252C9.91571 83.9231 10.475 83.8225 11.0382 83.8288C11.5615 83.8162 12.0819 83.9079 12.5687 84.0987C12.991 84.2805 13.3788 84.5329 13.7152 84.8449L13.3579 85.3424C13.3332 85.3774 13.3025 85.4078 13.2672 85.4323C13.2251 85.461 13.1741 85.4741 13.1233 85.4694C13.0679 85.4656 13.0146 85.4473 12.9686 85.4164L12.7766 85.2841L12.51 85.1148C12.3949 85.0519 12.2755 84.9971 12.1527 84.9507C11.9946 84.8946 11.8324 84.8503 11.6675 84.8184C11.4582 84.7802 11.2457 84.7624 11.0329 84.7655C10.6273 84.7605 10.2248 84.836 9.8491 84.9878C9.49871 85.1283 9.18244 85.3412 8.92124 85.6123C8.65535 85.9006 8.45044 86.2389 8.31867 86.6072C8.16849 87.0285 8.09447 87.4728 8.10004 87.9197C8.09363 88.3735 8.16764 88.8249 8.31867 89.2533C8.44879 89.6185 8.6499 89.9547 8.91058 90.243C9.15481 90.5117 9.45754 90.7216 9.79577 90.8569C10.1439 91.0001 10.5175 91.0721 10.8943 91.0685C11.1119 91.0719 11.3295 91.0577 11.5448 91.0262C11.8965 90.9836 12.2338 90.8624 12.5313 90.6716C12.6806 90.5739 12.8215 90.4642 12.9526 90.3435C13.0074 90.2916 13.0795 90.2615 13.1552 90.2588Z" fill="#F6B217" fill-opacity="0.7"/>
<path d="M25.4734 87.9197C25.4801 88.4812 25.3825 89.0391 25.1854 89.5656C25.0117 90.0431 24.7379 90.4786 24.3822 90.8435C24.0265 91.2084 23.5969 91.4943 23.1218 91.6825C22.0777 92.0777 20.9236 92.0777 19.8796 91.6825C19.4075 91.4914 18.9807 91.2048 18.6265 90.841C18.271 90.4694 17.9952 90.0301 17.8159 89.5497C17.4318 88.4837 17.4318 87.3186 17.8159 86.2526C17.9978 85.7719 18.2732 85.3313 18.6265 84.956C18.9837 84.6036 19.4103 84.328 19.8796 84.1463C20.9223 83.744 22.0791 83.744 23.1218 84.1463C23.5955 84.3373 24.024 84.6238 24.3802 84.9878C24.7313 85.3557 25.005 85.7892 25.1854 86.2632C25.383 86.7932 25.4806 87.3547 25.4734 87.9197ZM24.3536 87.9197C24.362 87.4705 24.2935 87.0231 24.1509 86.5966C24.0314 86.2313 23.8372 85.8943 23.5804 85.607C23.3303 85.3351 23.0225 85.1218 22.6792 84.9825C21.9206 84.6931 21.0808 84.6931 20.3222 84.9825C19.9789 85.1218 19.671 85.3351 19.421 85.607C19.1606 85.8927 18.9643 86.23 18.8451 86.5966C18.5738 87.4581 18.5738 88.3813 18.8451 89.2427C18.9655 89.6089 19.1616 89.9459 19.421 90.2324C19.6713 90.5026 19.9792 90.7142 20.3222 90.8516C21.0822 91.1336 21.9192 91.1336 22.6792 90.8516C23.0222 90.7142 23.33 90.5026 23.5804 90.2324C23.8361 89.9442 24.0302 89.6075 24.1509 89.2427C24.2941 88.8164 24.3626 88.3689 24.3536 87.9197Z" fill="#F6B217" fill-opacity="0.7"/>
<path d="M33.8773 89.3063L33.9893 89.6027C34.0319 89.4968 34.0693 89.4016 34.1119 89.3063C34.1526 89.2068 34.1989 89.1096 34.2506 89.0152L36.9755 84.0988C37.0288 84.0141 37.0768 83.9611 37.1301 83.9453C37.2026 83.9234 37.2784 83.9144 37.3541 83.9188H38.1593V91.9154H37.2048V86.0357C37.2048 85.9616 37.2048 85.8769 37.2048 85.787C37.1996 85.6953 37.1996 85.6034 37.2048 85.5118L34.4639 90.497C34.4291 90.5717 34.3734 90.6349 34.3034 90.679C34.2334 90.7231 34.1522 90.7463 34.0693 90.7458H33.9146C33.8316 90.7469 33.75 90.724 33.6799 90.6798C33.6098 90.6356 33.5543 90.5721 33.52 90.497L30.6991 85.48C30.6991 85.5753 30.6991 85.6705 30.6991 85.7658C30.6991 85.8611 30.6991 85.9457 30.6991 86.0198V91.8995H29.7766V83.9188H30.5818C30.6575 83.9144 30.7333 83.9234 30.8058 83.9453C30.8719 83.9778 30.9246 84.032 30.9551 84.0988L33.7387 89.0205C33.7934 89.1115 33.8398 89.2071 33.8773 89.3063Z" fill="#F6B217" fill-opacity="0.7"/>
<path d="M44.1317 88.9093V91.9047H43.0652V83.9188H45.4435C45.8924 83.9102 46.3401 83.9691 46.7713 84.0934C47.1164 84.1905 47.4365 84.3602 47.7098 84.5909C47.9466 84.8071 48.1293 85.0754 48.243 85.3741C48.3689 85.6999 48.4305 86.0467 48.4243 86.3955C48.429 86.7458 48.3619 87.0933 48.227 87.4169C48.0988 87.7233 47.9019 87.9966 47.6511 88.2161C47.3775 88.4564 47.0559 88.6367 46.7073 88.7453C46.2921 88.8769 45.8579 88.9395 45.4221 88.9305L44.1317 88.9093ZM44.1317 88.052H45.4221C45.7024 88.0556 45.9815 88.0145 46.2487 87.9303C46.4691 87.8567 46.6722 87.7397 46.8459 87.5863C47.0061 87.4399 47.1302 87.2588 47.2085 87.0571C47.2958 86.8437 47.3393 86.6152 47.3365 86.385C47.3489 86.163 47.3124 85.9409 47.2295 85.7344C47.1466 85.5278 47.0194 85.3417 46.8566 85.1889C46.4492 84.8732 45.9375 84.7203 45.4221 84.7602H44.1317V88.052Z" fill="#F6B217" fill-opacity="0.7"/>
<path d="M58.4655 91.9154H57.623C57.5384 91.9186 57.4554 91.8924 57.3883 91.8413C57.3278 91.7914 57.2803 91.7279 57.2497 91.656L56.5245 89.7244H52.8824L52.1305 91.656C52.1028 91.7267 52.0568 91.7887 51.9972 91.836C51.9294 91.8902 51.8442 91.9183 51.7572 91.9154H50.9147L54.1142 83.9188H55.2233L58.4655 91.9154ZM53.1863 88.9464H56.1938L54.9247 85.6917C54.8277 85.4469 54.7475 85.1958 54.6847 84.9402L54.5621 85.3583C54.5248 85.4853 54.4821 85.6017 54.4448 85.697L53.1863 88.9464Z" fill="#F6B217" fill-opacity="0.7"/>
<path d="M63.0728 83.9558C63.1365 83.9905 63.1913 84.0394 63.2327 84.0987L67.8987 90.1265C67.8987 90.0313 67.8987 89.936 67.8987 89.846C67.8987 89.7561 67.8987 89.6661 67.8987 89.5814V83.9188H68.8532V91.9153H68.3199C68.2442 91.9176 68.1691 91.9012 68.1013 91.8677C68.0354 91.8295 67.9775 91.7792 67.9307 91.7195L63.2701 85.6969C63.2752 85.7886 63.2752 85.8805 63.2701 85.9721C63.2701 86.0621 63.2701 86.1415 63.2701 86.2156V91.9153H62.3156V83.9188H62.8808C62.9468 83.9169 63.0123 83.9296 63.0728 83.9558Z" fill="#F6B217" fill-opacity="0.7"/>
<path d="M76.7134 88.7347V91.91H75.6469V88.7347L72.698 83.9187H73.6525C73.7348 83.9139 73.816 83.9383 73.8818 83.9875C73.9399 84.0389 73.9886 84.0997 74.0258 84.1675L75.8708 87.274C75.9455 87.4063 76.0095 87.528 76.0628 87.6445C76.1161 87.7609 76.1588 87.872 76.1961 87.9832L76.3348 87.6392C76.3865 87.5134 76.4471 87.3914 76.5161 87.274L78.3344 84.1463C78.3727 84.0839 78.4193 84.0269 78.4731 83.977C78.5363 83.9221 78.6185 83.8937 78.7024 83.8976H79.6676L76.7134 88.7347Z" fill="#F6B217" fill-opacity="0.7"/>
<path d="M33.3495 70.4977C33.8134 70.5559 34.2827 70.6035 34.7573 70.6459C41.9524 67.4515 48.0392 62.2232 52.2569 55.6146C56.4745 49.006 58.6359 41.3102 58.4709 33.4892L50.5415 25.6196C52.1537 33.9465 51.3996 42.5544 48.3633 50.4802C45.3271 58.406 40.1286 65.337 33.3495 70.4977Z" fill="#F6B217" fill-opacity="0.7"/>
<path d="M30.5178 70.1325L30.7311 70.1749C37.9753 65.0323 43.4983 57.8512 46.586 49.56C49.6737 41.2688 50.1841 32.2489 48.0511 23.6668L36.7568 12.4579C41.3251 21.6714 43.1638 31.9827 42.0594 42.1926C40.9549 52.4024 36.9526 62.0914 30.5178 70.1325Z" fill="#F6B217" fill-opacity="0.7"/>
<path d="M68.8212 42.7294C66.9024 51.323 62.2422 59.0733 55.5327 64.8297C53.5731 66.5201 51.4595 68.0261 49.219 69.3281C54.6825 67.7343 59.7043 64.9167 63.8971 61.0923C68.0899 57.2679 71.3417 52.5389 73.4019 47.2701L68.8212 42.7294Z" fill="#F6B217" fill-opacity="0.7"/>
<path d="M67.0242 41.4646L60.5025 34.9922C60.3778 42.3715 58.264 49.583 54.3808 55.8771C50.4975 62.1713 44.9865 67.3184 38.4207 70.7835H38.4526C39.9159 70.7829 41.3777 70.6963 42.8306 70.5242C48.9668 68.0386 54.3875 64.084 58.609 59.0134C62.8306 53.9428 65.7216 47.9138 67.0242 41.4646Z" fill="#F6B217" fill-opacity="0.7"/>
<path d="M31.4617 7.73194L23.6816 0C16.7265 2.66735 10.7448 7.35645 6.51937 13.4536C2.29396 19.5507 0.0217032 26.7719 0 34.1719H0C0.0260673 42.3487 2.79919 50.2833 7.88045 56.7199C12.9617 63.1565 20.0609 67.7274 28.0543 69.7092C35.19 61.0811 39.3677 50.4198 39.9805 39.2741C40.5933 28.1285 37.6092 17.0793 31.4617 7.73194Z" fill="#F6B217" fill-opacity="0.7"/>
<path d="M85 40.2738C84.9719 30.5724 81.0762 21.2764 74.1641 14.4164C67.2519 7.55643 57.8851 3.69018 48.1098 3.66225C43.5928 3.65761 39.1141 4.48485 34.9012 6.10197L82.5364 53.3774C84.1675 49.1985 85.0029 44.7554 85 40.2738Z" fill="#F6B217" fill-opacity="0.7"/>
</g>
<defs>
<clipPath id="clip0_18_220">
<rect width="85" height="92" fill="white"/>
</clipPath>
</defs>
</svg>
