<svg width="82" height="97" viewBox="0 0 82 97" fill="none" xmlns="http://www.w3.org/2000/svg">
<g clip-path="url(#clip0_18_157)">
<path d="M12.5281 0L26.9578 14.2232H67.2099V53.8994L81.6396 68.1226V0H12.5281Z" fill="#CE5959" fill-opacity="0.7"/>
<path d="M0.402359 14.2233V80.0749H67.2099V53.8994L26.9744 14.2396L0.402359 14.2233ZM54.4834 70.4425H10.9794V26.1538H14.0494V67.4435H54.4834V70.4425Z" fill="#CE5959" fill-opacity="0.7"/>
<path d="M5.7818 94.8305C5.83983 94.8319 5.89509 94.8552 5.93613 94.8957L6.33849 95.3303C6.02757 95.685 5.64199 95.9686 5.20858 96.1615C4.70399 96.374 4.15864 96.4759 3.61018 96.4603C3.10031 96.4671 2.59426 96.3729 2.12202 96.1833C1.6931 96.002 1.30661 95.7357 0.986605 95.4009C0.66456 95.051 0.417146 94.6409 0.259057 94.1948C0.0819138 93.6956 -0.00574418 93.1699 6.21928e-06 92.641C-0.0052466 92.1126 0.0881702 91.5878 0.275592 91.0927C0.450889 90.6425 0.717166 90.2322 1.05826 89.8866C1.39901 89.5447 1.8082 89.2764 2.25981 89.0988C2.75143 88.9097 3.2754 88.8156 3.80309 88.8218C4.29689 88.8114 4.78782 88.8982 5.24717 89.0771C5.65352 89.2427 6.02678 89.4781 6.34951 89.7725L6.0133 90.2343C5.9917 90.2683 5.96363 90.2978 5.93062 90.3212C5.88901 90.3454 5.84103 90.3567 5.79283 90.3538C5.74124 90.3516 5.69143 90.3347 5.64952 90.3049L5.44008 90.1854L5.19205 90.0333C5.08349 89.9702 4.96906 89.9174 4.85032 89.8757C4.70374 89.8209 4.55249 89.7791 4.39836 89.7508C4.20006 89.7163 3.99894 89.6999 3.79758 89.7019C3.41999 89.6991 3.0455 89.7693 2.69524 89.9083C2.36445 90.0379 2.067 90.2383 1.82439 90.4951C1.57829 90.7644 1.39071 91.0806 1.27321 91.4241C1.13155 91.8162 1.06248 92.2303 1.06928 92.6465C1.06115 93.0699 1.13022 93.4913 1.27321 93.8906C1.3929 94.2315 1.58027 94.5455 1.82439 94.8142C2.05496 95.0647 2.33927 95.2614 2.65666 95.3901C2.98457 95.5259 3.33718 95.5943 3.69286 95.5911C3.89739 95.5906 4.1017 95.5779 4.30466 95.5531C4.47363 95.5269 4.63971 95.485 4.80072 95.4281C4.95229 95.3751 5.09668 95.3039 5.23063 95.2162C5.37204 95.1269 5.50487 95.0251 5.62747 94.912C5.66926 94.8699 5.72312 94.8415 5.7818 94.8305Z" fill="#CE5959" fill-opacity="0.7"/>
<path d="M17.3619 92.6411C17.3667 93.1654 17.2752 93.6863 17.0919 94.1786C16.9222 94.6264 16.6636 95.0365 16.3312 95.3847C15.9946 95.7211 15.5912 95.9856 15.1462 96.1616C14.1733 96.5256 13.0987 96.5256 12.1258 96.1616C11.6787 95.9818 11.2749 95.7114 10.9407 95.3679C10.6065 95.0244 10.3492 94.6155 10.1857 94.1677C9.82569 93.1734 9.82569 92.087 10.1857 91.0927C10.3524 90.6418 10.6112 90.2294 10.9463 89.8812C11.2789 89.5412 11.6809 89.2745 12.1258 89.0989C13.1039 88.7219 14.1902 88.7219 15.1683 89.0989C15.6153 89.276 16.0191 89.5445 16.3533 89.8866C16.6754 90.2416 16.9243 90.6549 17.0863 91.1036C17.2716 91.5955 17.365 92.1164 17.3619 92.6411ZM16.3092 92.6411C16.3142 92.2223 16.249 91.8056 16.1163 91.4078C15.9995 91.0656 15.8118 90.7511 15.5651 90.4842C15.3294 90.2309 15.0394 90.0323 14.7163 89.9029C14.0073 89.6307 13.2206 89.6307 12.5116 89.9029C12.1885 90.0323 11.8985 90.2309 11.6628 90.4842C11.4163 90.7513 11.2287 91.0657 11.1116 91.4078C10.8618 92.2116 10.8618 93.0706 11.1116 93.8743C11.2286 94.2148 11.4163 94.5275 11.6628 94.7925C11.8985 95.0459 12.1885 95.2444 12.5116 95.3738C13.2218 95.6393 14.0061 95.6393 14.7163 95.3738C15.0394 95.2444 15.3294 95.0459 15.5651 94.7925C15.8118 94.5277 15.9996 94.215 16.1163 93.8743C16.249 93.4765 16.3142 93.0598 16.3092 92.6411Z" fill="#CE5959" fill-opacity="0.7"/>
<path d="M25.2602 93.9341C25.2933 94.0264 25.3319 94.1188 25.365 94.2166C25.4035 94.1188 25.4366 94.0264 25.4752 93.9341C25.5138 93.8417 25.5579 93.7602 25.6075 93.6679L28.1704 89.0988C28.2014 89.0363 28.2515 88.985 28.3137 88.9522C28.385 88.9417 28.4574 88.9417 28.5287 88.9522H29.2838V96.4169H28.3854V90.9297C28.3854 90.8537 28.3854 90.7776 28.3854 90.6961C28.3799 90.6111 28.3799 90.5258 28.3854 90.4408L25.8114 95.075C25.7788 95.1446 25.7268 95.2035 25.6613 95.2449C25.5959 95.2863 25.5199 95.3084 25.4421 95.3086H25.2933C25.2154 95.3091 25.1391 95.2872 25.0735 95.2458C25.008 95.2043 24.956 95.145 24.924 95.075L22.2674 90.3919C22.2674 90.4842 22.2674 90.5711 22.2949 90.6581C22.3225 90.745 22.2949 90.8211 22.2949 90.8971V96.3843H21.402V88.9087H22.1571C22.2284 88.8983 22.3008 88.8983 22.3721 88.9087C22.4325 88.9422 22.4807 88.9935 22.5099 89.0554L25.1279 93.6516C25.1796 93.7421 25.2239 93.8366 25.2602 93.9341Z" fill="#CE5959" fill-opacity="0.7"/>
<path d="M34.8947 93.5809V96.3734H33.875V88.9087H36.1073C36.5303 88.9009 36.952 88.9559 37.3585 89.0717C37.6833 89.1626 37.9842 89.322 38.2403 89.5389C38.4718 89.7353 38.6499 89.9855 38.7584 90.2669C38.8767 90.5701 38.9347 90.8929 38.9293 91.2176C38.9334 91.5451 38.8716 91.8701 38.7474 92.1738C38.6229 92.4597 38.4345 92.7141 38.1962 92.9181C37.9362 93.1362 37.6345 93.3006 37.3089 93.4017C36.9175 93.5272 36.5077 93.5878 36.0963 93.5809H34.8947ZM34.8947 92.7769H36.1073C36.3709 92.7811 36.6335 92.7426 36.8844 92.6628C37.0887 92.5946 37.2763 92.4855 37.4356 92.3423C37.5854 92.2045 37.7021 92.0356 37.7773 91.8479C37.8563 91.647 37.8956 91.4331 37.8931 91.2176C37.9045 91.0113 37.8705 90.8049 37.7934 90.6127C37.7164 90.4204 37.5981 90.2469 37.4466 90.1039C37.0631 89.8086 36.5815 89.6652 36.0963 89.7019H34.8837L34.8947 92.7769Z" fill="#CE5959" fill-opacity="0.7"/>
<path d="M48.3709 96.3734H47.5772C47.4977 96.3751 47.42 96.3502 47.3567 96.3028C47.2995 96.257 47.2557 96.197 47.2299 96.129L46.5189 94.3307H43.1237L42.4403 96.129C42.4154 96.196 42.3714 96.2545 42.3135 96.2974C42.2521 96.3488 42.1735 96.3759 42.093 96.3734H41.2718L44.3032 88.9087H45.3449L48.3709 96.3734ZM43.4103 93.5973H46.2378L45.0473 90.5603C44.9551 90.3323 44.8796 90.0981 44.8213 89.8594C44.7846 90.0007 44.746 90.1311 44.7056 90.2506C44.667 90.3701 44.6339 90.4788 44.5953 90.5657L43.4103 93.5973Z" fill="#CE5959" fill-opacity="0.7"/>
<path d="M52.7031 88.9413C52.7622 88.9753 52.813 89.0217 52.8519 89.0771L57.2613 94.7056C57.2613 94.6132 57.2613 94.5263 57.2613 94.4394C57.2613 94.3524 57.2613 94.271 57.2613 94.1949V88.9087H58.1597V96.3735H57.6416C57.5711 96.3751 57.5012 96.3602 57.4377 96.33C57.3742 96.2954 57.3196 96.2471 57.2778 96.1887L52.8684 90.5657V90.8211C52.8684 90.908 52.8684 90.9841 52.8684 91.0547V96.3735H51.97V88.9087H52.5212C52.5834 88.9081 52.6451 88.9192 52.7031 88.9413Z" fill="#CE5959" fill-opacity="0.7"/>
<path d="M65.5178 93.4017V96.3734H64.4872V93.4017L61.7313 88.9087H62.6297C62.7069 88.9045 62.7832 88.9276 62.8447 88.9739C62.9006 89.0213 62.9473 89.0784 62.9825 89.1423L64.7186 92.0434C64.7848 92.163 64.8454 92.2771 64.895 92.3857C64.9446 92.4944 64.9832 92.5976 65.0218 92.7063C65.0604 92.5976 65.1045 92.4889 65.1486 92.3803C65.1975 92.2632 65.2565 92.1506 65.3249 92.0434L67.0501 89.1423C67.0859 89.0819 67.1305 89.027 67.1824 88.9793C67.2424 88.9298 67.3192 88.9045 67.3973 88.9087H68.3068L65.5178 93.4017Z" fill="#CE5959" fill-opacity="0.7"/>
</g>
<defs>
<clipPath id="clip0_18_157">
<rect width="81.6396" height="96.455" fill="white"/>
</clipPath>
</defs>
</svg>
