<svg width="18" height="16" viewBox="0 0 18 16" fill="none" xmlns="http://www.w3.org/2000/svg">
<path fill-rule="evenodd" clip-rule="evenodd" d="M0.386841 1C0.386841 0.447715 0.867236 -5.15009e-08 1.45983 0L16.4817 1.30551e-06C17.0743 1.35702e-06 17.5547 0.447717 17.5547 1C17.5547 1.55229 17.0743 2 16.4817 2L1.45983 2C0.867236 2 0.386841 1.55228 0.386841 1Z" fill="white"/>
<path fill-rule="evenodd" clip-rule="evenodd" d="M0.386841 8C0.386841 7.44772 0.867236 7 1.45983 7L16.4817 7C17.0743 7 17.5547 7.44772 17.5547 8C17.5547 8.55229 17.0743 9 16.4817 9L1.45983 9C0.867236 9 0.386841 8.55229 0.386841 8Z" fill="white"/>
<path fill-rule="evenodd" clip-rule="evenodd" d="M0.386841 15C0.386841 14.4477 0.867236 14 1.45983 14L16.4817 14C17.0743 14 17.5547 14.4477 17.5547 15C17.5547 15.5523 17.0743 16 16.4817 16L1.45983 16C0.867236 16 0.386841 15.5523 0.386841 15Z" fill="white"/>
</svg>
