<svg width="24" height="24" viewBox="0 0 24 24" fill="none" xmlns="http://www.w3.org/2000/svg">
<path fill-rule="evenodd" clip-rule="evenodd" d="M4 23.5679C1.79086 23.5679 0 21.9069 0 19.858V9.15918C0 8.7818 0.185798 8.42508 0.504534 8.1905L9.5136 1.56014C10.9698 0.488418 13.0302 0.488417 14.4864 1.56014L23.4955 8.1905C23.8142 8.42508 24 8.7818 24 9.15918V19.858C24 21.9069 22.2091 23.5679 20 23.5679H4ZM11.1712 3.4975C11.6566 3.14026 12.3434 3.14026 12.8288 3.4975L21.3333 9.75654V19.858C21.3333 20.541 20.7364 21.0946 20 21.0946H16.6667V15.5299C16.6667 13.1395 14.5773 11.2018 12 11.2018C9.42267 11.2018 7.33333 13.1395 7.33333 15.5299V21.0946H4C3.26362 21.0946 2.66667 20.541 2.66667 19.858V9.75654L11.1712 3.4975ZM10 21.0947H14V15.5299C14 14.5055 13.1046 13.675 12 13.675C10.8954 13.675 10 14.5055 10 15.5299V21.0947Z" fill="#464A54" fill-opacity="0.5"/>
</svg>
