<svg width="19" height="17" viewBox="0 0 19 17" fill="none" xmlns="http://www.w3.org/2000/svg">
<g clip-path="url(#clip0_373_1462)">
<path d="M18.5189 17H1.44336C1.23629 16.9998 1.03164 16.9596 0.843172 16.8821C0.654703 16.8046 0.486773 16.6915 0.35066 16.5505C0.214378 16.4095 0.112675 16.244 0.0522394 16.0649C-0.00819573 15.8858 -0.0259936 15.6972 1.61603e-05 15.5115L1.63092 5.04765C1.68069 4.73004 1.85754 4.43993 2.12801 4.23218C2.39849 4.02442 2.74383 3.91344 3.09873 3.92021H15.9013C16.2501 3.92216 16.5867 4.03693 16.85 4.24375C17.1132 4.45057 17.2858 4.73576 17.3365 5.04765L18.8614 14.7377C18.8706 14.7944 18.8674 14.8521 18.8519 14.9076C18.8364 14.9631 18.8089 15.0152 18.771 15.0611C18.7331 15.107 18.6856 15.1456 18.6311 15.1749C18.5767 15.2041 18.5164 15.2233 18.4537 15.2314C18.391 15.2398 18.3271 15.2369 18.2657 15.2228C18.2043 15.2088 18.1466 15.184 18.0958 15.1498C18.0451 15.1155 18.0023 15.0726 17.9699 15.0234C17.9376 14.9741 17.9163 14.9197 17.9073 14.863L16.3743 5.15819C16.3586 5.05463 16.3021 4.95965 16.2153 4.89063C16.1284 4.82161 16.017 4.78318 15.9013 4.78237H3.09873C2.98307 4.78318 2.8716 4.82161 2.78474 4.89063C2.69788 4.95965 2.64145 5.05463 2.62577 5.15819L0.994866 15.6146C0.982297 15.6764 0.986088 15.74 1.00593 15.8002C1.02577 15.8604 1.0611 15.9155 1.10903 15.961C1.15165 16.0099 1.20619 16.0494 1.26842 16.0762C1.33064 16.1031 1.39888 16.1166 1.46783 16.1157H18.5189C18.6465 16.1157 18.7689 16.1615 18.8591 16.243C18.9493 16.3246 19 16.4352 19 16.5505C19 16.6658 18.9493 16.7764 18.8591 16.8579C18.7689 16.9394 18.6465 16.9852 18.5189 16.9852V17Z" fill="white"/>
<path d="M6.12401 8.7174C5.74143 8.71739 5.36745 8.61478 5.04946 8.42255C4.73147 8.23032 4.48377 7.95713 4.33773 7.63759C4.1917 7.31804 4.15391 6.96652 4.22914 6.62754C4.30438 6.28857 4.48925 5.9774 4.76035 5.73346C5.03145 5.48951 5.37657 5.32376 5.752 5.25721C6.12742 5.19066 6.51626 5.2263 6.86926 5.35961C7.22225 5.49293 7.52352 5.71792 7.73489 6.00608C7.94627 6.29425 8.05824 6.63262 8.05663 6.97834C8.05447 7.44024 7.8499 7.88256 7.4877 8.20849C7.1255 8.53442 6.63516 8.7174 6.12401 8.7174ZM6.12401 6.10145C5.93175 6.09999 5.74333 6.15017 5.58269 6.24563C5.42204 6.3411 5.29639 6.47753 5.2217 6.63763C5.147 6.79773 5.12661 6.97427 5.16313 7.14485C5.19965 7.31544 5.29142 7.47237 5.4268 7.59575C5.56218 7.71912 5.73507 7.80337 5.92352 7.83781C6.11198 7.87225 6.30751 7.85532 6.4853 7.78917C6.66309 7.72302 6.81512 7.61064 6.92212 7.46628C7.02911 7.32192 7.08623 7.15209 7.08624 6.97834C7.08732 6.86354 7.06322 6.74967 7.01535 6.64332C6.96747 6.53698 6.89677 6.44025 6.80731 6.35872C6.71785 6.2772 6.61141 6.21249 6.49413 6.16833C6.37685 6.12417 6.25106 6.10144 6.12401 6.10145Z" fill="white"/>
<path d="M12.876 8.7174C12.4934 8.71739 12.1194 8.61478 11.8014 8.42255C11.4834 8.23032 11.2357 7.95713 11.0897 7.63759C10.9437 7.31804 10.9059 6.96652 10.9811 6.62754C11.0563 6.28857 11.2412 5.9774 11.5123 5.73346C11.7834 5.48951 12.1285 5.32376 12.5039 5.25721C12.8794 5.19066 13.2682 5.2263 13.6212 5.35961C13.9742 5.49293 14.2755 5.71792 14.4868 6.00608C14.6982 6.29425 14.8102 6.63262 14.8086 6.97834C14.8086 7.20734 14.7585 7.43408 14.6613 7.64556C14.5641 7.85703 14.4216 8.04907 14.242 8.21065C14.0625 8.37224 13.8494 8.50018 13.6149 8.58714C13.3805 8.6741 13.1294 8.71837 12.876 8.7174ZM12.876 6.10145C12.6848 6.10435 12.4988 6.15824 12.3414 6.25634C12.1839 6.35444 12.0621 6.49239 11.9912 6.65285C11.9202 6.81332 11.9033 6.98915 11.9426 7.15827C11.9818 7.32739 12.0755 7.48226 12.2118 7.60342C12.3482 7.72459 12.5211 7.80665 12.7089 7.83931C12.8967 7.87197 13.0909 7.85377 13.2673 7.78698C13.4437 7.7202 13.5943 7.60782 13.7002 7.46395C13.8061 7.32008 13.8626 7.15114 13.8627 6.97834C13.8638 6.86165 13.8389 6.74595 13.7895 6.63812C13.7401 6.5303 13.6672 6.43257 13.5752 6.35074C13.4831 6.26891 13.3737 6.20467 13.2536 6.16184C13.1335 6.11901 13.0051 6.09847 12.876 6.10145Z" fill="white"/>
<path d="M12.876 6.10143C12.8125 6.10242 12.7494 6.09186 12.6906 6.07037C12.6317 6.04887 12.5782 6.01688 12.5333 5.97631C12.4884 5.93574 12.453 5.88741 12.4292 5.83421C12.4055 5.78101 12.3938 5.72403 12.3949 5.66666V3.456C12.3949 3.11247 12.32 2.7723 12.1745 2.45492C12.029 2.13754 11.8158 1.84916 11.547 1.60624C11.2782 1.36333 10.9591 1.17064 10.6078 1.03918C10.2566 0.907711 9.88018 0.840048 9.50003 0.840048C9.11987 0.840048 8.74343 0.907711 8.39221 1.03918C8.041 1.17064 7.72187 1.36333 7.45306 1.60624C7.18425 1.84916 6.97101 2.13754 6.82553 2.45492C6.68005 2.7723 6.60518 3.11247 6.60518 3.456V5.66666C6.60518 5.78197 6.55449 5.89255 6.46426 5.97409C6.37403 6.05562 6.25166 6.10143 6.12406 6.10143C5.99646 6.10143 5.87409 6.05562 5.78386 5.97409C5.69363 5.89255 5.64294 5.78197 5.64294 5.66666V3.456C5.64294 2.53159 6.04931 1.64505 6.77266 0.991393C7.496 0.337739 8.47706 -0.02948 9.50003 -0.02948C10.523 -0.02948 11.5041 0.337739 12.2274 0.991393C12.9507 1.64505 13.3571 2.53159 13.3571 3.456V5.66666C13.3582 5.72403 13.3465 5.78101 13.3227 5.83421C13.2989 5.88741 13.2635 5.93574 13.2187 5.97631C13.1738 6.01688 13.1203 6.04887 13.0614 6.07037C13.0025 6.09186 12.9395 6.10242 12.876 6.10143Z" fill="white"/>
</g>
<defs>
<clipPath id="clip0_373_1462">
<rect width="19" height="17" fill="white"/>
</clipPath>
</defs>
</svg>
