<svg width="24" height="22" viewBox="0 0 24 22" fill="none" xmlns="http://www.w3.org/2000/svg">
<g clip-path="url(#clip0_298_9927)">
<path d="M23.3923 22H1.8232C1.56162 21.9998 1.30313 21.9478 1.06506 21.8475C0.826993 21.7471 0.614871 21.6008 0.442939 21.4183C0.270793 21.2358 0.142326 21.0216 0.0659866 20.7899C-0.0103525 20.5581 -0.0328341 20.3141 2.04127e-05 20.0737L2.06011 6.53229C2.12298 6.12127 2.34637 5.74583 2.68802 5.47697C3.02967 5.20812 3.46589 5.06449 3.91418 5.07325H20.0859C20.5265 5.07577 20.9516 5.2243 21.2842 5.49195C21.6167 5.7596 21.8347 6.12866 21.8987 6.53229L23.8249 19.0724C23.8366 19.1457 23.8325 19.2204 23.8129 19.2922C23.7933 19.364 23.7586 19.4315 23.7107 19.4909C23.6629 19.5502 23.6028 19.6003 23.534 19.6381C23.4653 19.6759 23.3891 19.7008 23.3099 19.7113C23.2307 19.7221 23.1501 19.7183 23.0725 19.7002C22.9949 19.682 22.922 19.6499 22.8579 19.6056C22.7937 19.5613 22.7397 19.5057 22.6988 19.442C22.658 19.3783 22.6311 19.3078 22.6198 19.2345L20.6833 6.67534C20.6635 6.54132 20.5922 6.4184 20.4825 6.32909C20.3728 6.23977 20.232 6.19003 20.0859 6.18899H3.91418C3.76809 6.19003 3.62729 6.23977 3.51757 6.32909C3.40785 6.4184 3.33656 6.54132 3.31676 6.67534L1.25667 20.2072C1.2408 20.2871 1.24559 20.3694 1.27065 20.4473C1.29571 20.5252 1.34034 20.5965 1.40088 20.6554C1.45471 20.7188 1.52361 20.7698 1.60221 20.8046C1.68081 20.8393 1.76701 20.8568 1.8541 20.8557H23.3923C23.5535 20.8557 23.708 20.9149 23.822 21.0204C23.936 21.126 24 21.2691 24 21.4183C24 21.5675 23.936 21.7106 23.822 21.8161C23.708 21.9217 23.5535 21.9809 23.3923 21.9809V22Z" fill="black"/>
<path d="M7.73562 11.2813C7.25235 11.2813 6.77997 11.1485 6.37829 10.8997C5.97662 10.6509 5.66373 10.2974 5.47927 9.88386C5.29481 9.47033 5.24707 9.01542 5.3421 8.57675C5.43713 8.13808 5.67066 7.73539 6.0131 7.4197C6.35554 7.104 6.79148 6.88951 7.26571 6.80338C7.73993 6.71725 8.23109 6.76337 8.67698 6.9359C9.12287 7.10842 9.50342 7.39958 9.77042 7.7725C10.0374 8.14542 10.1789 8.58332 10.1768 9.03072C10.1741 9.62848 9.91569 10.2009 9.45817 10.6227C9.00065 11.0445 8.38128 11.2813 7.73562 11.2813ZM7.73562 7.89592C7.49276 7.89403 7.25476 7.95897 7.05184 8.08251C6.84892 8.20605 6.69021 8.38262 6.59585 8.5898C6.5015 8.79699 6.47575 9.02545 6.52187 9.24621C6.568 9.46697 6.68392 9.67006 6.85493 9.82972C7.02594 9.98938 7.24432 10.0984 7.48237 10.143C7.72042 10.1875 7.9674 10.1656 8.19198 10.08C8.41656 9.99443 8.6086 9.84899 8.74375 9.66217C8.8789 9.47535 8.95106 9.25557 8.95107 9.03072C8.95243 8.88215 8.92199 8.7348 8.86152 8.59717C8.80105 8.45955 8.71173 8.33437 8.59873 8.22887C8.48573 8.12336 8.35128 8.03962 8.20314 7.98248C8.055 7.92533 7.8961 7.89591 7.73562 7.89592Z" fill="black"/>
<path d="M16.2644 11.2813C15.7812 11.2813 15.3088 11.1485 14.9071 10.8997C14.5054 10.6509 14.1925 10.2974 14.0081 9.88386C13.8236 9.47033 13.7759 9.01542 13.8709 8.57675C13.9659 8.13808 14.1995 7.73539 14.5419 7.4197C14.8843 7.104 15.3203 6.88951 15.7945 6.80338C16.2687 6.71725 16.7599 6.76337 17.2058 6.9359C17.6517 7.10842 18.0322 7.39958 18.2992 7.7725C18.5662 8.14542 18.7077 8.58332 18.7056 9.03072C18.7056 9.32707 18.6424 9.62051 18.5196 9.89418C18.3968 10.1678 18.2168 10.4164 17.99 10.6255C17.7632 10.8346 17.494 11.0002 17.1979 11.1127C16.9017 11.2252 16.5845 11.2825 16.2644 11.2813ZM16.2644 7.89592C16.0229 7.89967 15.788 7.96941 15.5891 8.09637C15.3903 8.22333 15.2364 8.40184 15.1468 8.6095C15.0571 8.81717 15.0358 9.04471 15.0854 9.26357C15.135 9.48243 15.2533 9.68285 15.4255 9.83965C15.5978 9.99646 15.8162 10.1027 16.0534 10.1449C16.2906 10.1872 16.536 10.1636 16.7587 10.0772C16.9815 9.99078 17.1717 9.84534 17.3055 9.65916C17.4393 9.47298 17.5107 9.25435 17.5108 9.03072C17.5122 8.87971 17.4808 8.72998 17.4184 8.59044C17.356 8.45091 17.2639 8.32442 17.1476 8.21853C17.0313 8.11264 16.8932 8.02951 16.7415 7.97408C16.5897 7.91865 16.4275 7.89207 16.2644 7.89592Z" fill="black"/>
<path d="M16.2644 7.89603C16.1842 7.89732 16.1046 7.88365 16.0302 7.85583C15.9558 7.82801 15.8883 7.78662 15.8316 7.73411C15.7749 7.68161 15.7302 7.61907 15.7001 7.55022C15.6701 7.48138 15.6553 7.40763 15.6567 7.33339V4.47253C15.6567 4.02796 15.5621 3.58775 15.3783 3.17702C15.1946 2.76629 14.9252 2.39309 14.5857 2.07873C14.2461 1.76437 13.843 1.51501 13.3994 1.34488C12.9557 1.17475 12.4802 1.08718 12 1.08718C11.5198 1.08718 11.0443 1.17475 10.6007 1.34488C10.157 1.51501 9.75394 1.76437 9.41439 2.07873C9.07484 2.39309 8.80549 2.76629 8.62173 3.17702C8.43796 3.58775 8.34338 4.02796 8.34338 4.47253V7.33339C8.34338 7.48261 8.27935 7.62572 8.16538 7.73124C8.05141 7.83675 7.89683 7.89603 7.73566 7.89603C7.57448 7.89603 7.4199 7.83675 7.30593 7.73124C7.19196 7.62572 7.12793 7.48261 7.12793 7.33339V4.47253C7.12793 3.27624 7.64124 2.12895 8.55494 1.28304C9.46863 0.437139 10.7079 -0.0380859 12 -0.0380859C13.2922 -0.0380859 14.5314 0.437139 15.4451 1.28304C16.3588 2.12895 16.8721 3.27624 16.8721 4.47253V7.33339C16.8735 7.40763 16.8588 7.48138 16.8287 7.55022C16.7987 7.61907 16.754 7.68161 16.6972 7.73411C16.6405 7.78662 16.573 7.82801 16.4986 7.85583C16.4243 7.88365 16.3446 7.89732 16.2644 7.89603Z" fill="black"/>
</g>
<defs>
<clipPath id="clip0_298_9927">
<rect width="24" height="22" fill="white"/>
</clipPath>
</defs>
</svg>
