<svg width="20" height="20" viewBox="0 0 20 20" fill="none" xmlns="http://www.w3.org/2000/svg">
<path fill-rule="evenodd" clip-rule="evenodd" d="M20 1.25C20 0.559644 19.4404 -6.43761e-08 18.75 0L1.25 1.63189e-06C0.559643 1.69627e-06 0 0.559646 0 1.25C0 1.94036 0.559643 2.5 1.25 2.5L18.75 2.5C19.4404 2.5 20 1.94036 20 1.25Z" fill="#464A54"/>
<path fill-rule="evenodd" clip-rule="evenodd" d="M16.25 10C16.25 9.30964 15.6904 8.75 15 8.75L1.25 8.75C0.559643 8.75 0 9.30964 0 10C0 10.6904 0.559643 11.25 1.25 11.25L15 11.25C15.6904 11.25 16.25 10.6904 16.25 10Z" fill="#464A54"/>
<path fill-rule="evenodd" clip-rule="evenodd" d="M20 18.75C20 18.0596 19.4404 17.5 18.75 17.5L1.25 17.5C0.559643 17.5 0 18.0596 0 18.75C0 19.4404 0.559643 20 1.25 20L18.75 20C19.4404 20 20 19.4404 20 18.75Z" fill="#464A54"/>
</svg>
