<svg width="33" height="24" viewBox="0 0 33 24" fill="none" xmlns="http://www.w3.org/2000/svg">
<path d="M27.1577 24.0001H19.9895C19.8551 24.0001 19.722 23.9807 19.5979 23.943C19.4738 23.9054 19.3612 23.8502 19.2665 23.7806C19.1717 23.7111 19.0968 23.6286 19.046 23.5379C18.9952 23.4471 18.9696 23.35 18.9705 23.252V19.5675C18.9705 19.3309 18.9066 19.0966 18.7824 18.8781C18.6582 18.6595 18.4762 18.4609 18.2468 18.2936C18.0174 18.1263 17.745 17.9936 17.4452 17.9031C17.1454 17.8126 16.8241 17.766 16.4997 17.766C16.1752 17.766 15.8539 17.8126 15.5541 17.9031C15.2543 17.9936 14.982 18.1263 14.7525 18.2936C14.5231 18.4609 14.3411 18.6595 14.2169 18.8781C14.0928 19.0966 14.0288 19.3309 14.0288 19.5675V23.252C14.0289 23.4495 13.9217 23.639 13.7308 23.7792C13.5399 23.9193 13.2807 23.9987 13.0098 24.0001H5.83469C5.70027 24.0001 5.56719 23.9807 5.4431 23.943C5.31901 23.9054 5.20636 23.8502 5.11164 23.7806C5.01692 23.7111 4.94201 23.6286 4.89121 23.5379C4.84041 23.4471 4.81473 23.35 4.81565 23.252V13.0077H1.02567C0.824099 13.008 0.626821 12.9652 0.458152 12.8847C0.289483 12.8043 0.156794 12.6896 0.0764362 12.5548C0.00103172 12.4183 -0.0186622 12.2688 0.0197251 12.1243C0.0581124 11.9799 0.152945 11.8466 0.292807 11.7405L15.7668 0.213799C15.9642 0.0763008 16.2267 -0.000427246 16.4997 -0.000427246C16.7727 -0.000427246 17.0351 0.0763008 17.2325 0.213799L24.966 5.9797L32.7065 11.7405C32.8468 11.8465 32.9413 11.98 32.9785 12.1248C33.0158 12.2695 32.994 12.419 32.9159 12.5548C32.8383 12.6899 32.7072 12.8052 32.5394 12.8859C32.3716 12.9665 32.1746 13.009 31.9736 13.0077H28.1837V23.252C28.1837 23.3502 28.1571 23.4475 28.1056 23.5382C28.054 23.629 27.9784 23.7115 27.8832 23.7809C27.7879 23.8504 27.6748 23.9055 27.5503 23.9431C27.4258 23.9807 27.2924 24.0001 27.1577 24.0001ZM21.0155 22.509H26.1386V12.2647C26.1386 12.0672 26.2458 11.8776 26.4367 11.7375C26.6276 11.5974 26.8868 11.5179 27.1577 11.5166H29.5377L16.4997 1.80667L3.48951 11.5166H5.83469C5.96942 11.5166 6.10284 11.5359 6.22732 11.5735C6.35181 11.6111 6.46491 11.6662 6.56019 11.7357C6.65546 11.8052 6.73104 11.8876 6.7826 11.9784C6.83416 12.0692 6.8607 12.1664 6.8607 12.2647V22.509H11.9838V19.5675C11.9838 18.6942 12.4596 17.8567 13.3065 17.2393C14.1534 16.6218 15.302 16.2749 16.4997 16.2749C17.6973 16.2749 18.846 16.6218 19.6929 17.2393C20.5397 17.8567 21.0155 18.6942 21.0155 19.5675V22.509Z" fill="black"/>
</svg>
