<svg width="78" height="21" viewBox="0 0 78 21" fill="none" xmlns="http://www.w3.org/2000/svg">
<rect x="21.0385" y="0.5" width="36.1538" height="20" fill="white" stroke="#D9D9D9"/>
<path d="M37.6076 9.33594H38.8107C39.1961 9.33594 39.5138 9.27083 39.7638 9.14062C40.0138 9.00521 40.1987 8.81771 40.3185 8.57812C40.4435 8.33333 40.506 8.04948 40.506 7.72656C40.506 7.4349 40.4487 7.17708 40.3341 6.95312C40.2248 6.72396 40.0555 6.54688 39.8263 6.42188C39.5971 6.29167 39.3081 6.22656 38.9591 6.22656C38.6831 6.22656 38.4279 6.28125 38.1935 6.39062C37.9591 6.5 37.7716 6.65365 37.631 6.85156C37.4904 7.04948 37.4201 7.28906 37.4201 7.57031H35.1623C35.1623 6.94531 35.3289 6.40104 35.6623 5.9375C36.0008 5.47396 36.4539 5.11198 37.0216 4.85156C37.5893 4.59115 38.2143 4.46094 38.8966 4.46094C39.6675 4.46094 40.3419 4.58594 40.9201 4.83594C41.4982 5.08073 41.9487 5.44271 42.2716 5.92188C42.5945 6.40104 42.756 6.99479 42.756 7.70312C42.756 8.0625 42.6727 8.41146 42.506 8.75C42.3393 9.08333 42.0998 9.38542 41.7873 9.65625C41.48 9.92188 41.105 10.1354 40.6623 10.2969C40.2195 10.4531 39.7221 10.5312 39.1701 10.5312H37.6076V9.33594ZM37.6076 11.0469V9.88281H39.1701C39.7899 9.88281 40.3341 9.95312 40.8029 10.0938C41.2716 10.2344 41.6649 10.4375 41.9826 10.7031C42.3003 10.9635 42.5399 11.2734 42.7013 11.6328C42.8628 11.987 42.9435 12.3802 42.9435 12.8125C42.9435 13.3438 42.8419 13.8177 42.6388 14.2344C42.4357 14.6458 42.1492 14.9948 41.7794 15.2812C41.4149 15.5677 40.9878 15.7865 40.4982 15.9375C40.0086 16.0833 39.4748 16.1562 38.8966 16.1562C38.4175 16.1562 37.9461 16.0911 37.4826 15.9609C37.0242 15.8255 36.6076 15.625 36.2326 15.3594C35.8628 15.0885 35.5659 14.75 35.3419 14.3438C35.1232 13.9323 35.0138 13.4453 35.0138 12.8828H37.2716C37.2716 13.1745 37.3445 13.4349 37.4904 13.6641C37.6362 13.8932 37.8367 14.0729 38.0919 14.2031C38.3524 14.3333 38.6414 14.3984 38.9591 14.3984C39.3185 14.3984 39.6258 14.3333 39.881 14.2031C40.1414 14.0677 40.3393 13.8802 40.4748 13.6406C40.6154 13.3958 40.6857 13.112 40.6857 12.7891C40.6857 12.3724 40.6102 12.0391 40.4591 11.7891C40.3081 11.5339 40.0919 11.3464 39.8107 11.2266C39.5294 11.1068 39.1961 11.0469 38.8107 11.0469H37.6076Z" fill="#333333"/>
<path d="M1.03845 2C1.03845 1.17157 1.71003 0.5 2.53845 0.5H21.0385V20.5H2.53845C1.71003 20.5 1.03845 19.8284 1.03845 19V2Z" fill="white" stroke="#D9D9D9"/>
<path d="M12.3984 10.5703V11.7578H8.58594V10.5703H12.3984Z" fill="#333333"/>
<path d="M57.1923 0.5H75.6923C76.5207 0.5 77.1923 1.17157 77.1923 2V19C77.1923 19.8284 76.5207 20.5 75.6923 20.5H57.1923V0.5Z" fill="white" stroke="#D9D9D9"/>
<path d="M71.0595 9.89844V11.2578H63.2626V9.89844H71.0595ZM67.8876 6.57812V14.8594H66.4423V6.57812H67.8876Z" fill="#333333"/>
</svg>
