<svg width="20" height="20" viewBox="0 0 20 20" fill="none" xmlns="http://www.w3.org/2000/svg">
<g clip-path="url(#clip0_287_8368)">
<path d="M19.86 11.36L16.54 0.509999C16.4949 0.362206 16.4035 0.232831 16.2793 0.140991C16.155 0.0491514 16.0045 -0.000280822 15.85 -7.23546e-07H4.3C4.15141 0.00254041 4.00724 0.051001 3.88728 0.138731C3.76732 0.226462 3.67745 0.349163 3.63 0.489999L0.08 11.31V11.38L3.49317e-09 18.93C-9.32905e-06 19.0241 0.0186814 19.1172 0.054986 19.204C0.0912905 19.2908 0.144485 19.3696 0.211477 19.4356C0.27847 19.5017 0.357924 19.5538 0.445223 19.5889C0.532522 19.6239 0.625923 19.6413 0.72 19.64H19.27C19.4477 19.64 19.6181 19.5694 19.7438 19.4438C19.8694 19.3181 19.94 19.1477 19.94 18.97L19.86 11.36ZM4.2 0.569999H16L19.3 11.31H12.92C12.7387 11.31 12.5647 11.3813 12.4356 11.5085C12.3065 11.6358 12.2326 11.8087 12.23 11.99V14.81H7.81V11.9C7.80743 11.7443 7.74444 11.5957 7.63435 11.4857C7.52425 11.3756 7.37567 11.3126 7.22 11.31H0.67L4.2 0.569999ZM19.37 19.07H0.57V11.88H7.24V14.74C7.24 14.9097 7.30743 15.0725 7.42745 15.1925C7.54747 15.3126 7.71026 15.38 7.88 15.38H12.14C12.227 15.3813 12.3135 15.3652 12.3942 15.3325C12.4748 15.2998 12.5481 15.2513 12.6097 15.1897C12.6713 15.1281 12.7198 15.0548 12.7525 14.9742C12.7852 14.8935 12.8013 14.807 12.8 14.72V11.88H19.37V19.07Z" fill="#232020"/>
<path d="M10.0002 10.05C10.0378 10.0513 10.0753 10.0451 10.1104 10.0316C10.1456 10.0182 10.1776 9.99775 10.2047 9.97161C10.2318 9.94548 10.2533 9.91415 10.268 9.87951C10.2827 9.84487 10.2902 9.80763 10.2902 9.77V1.77C10.2777 1.70356 10.2424 1.64357 10.1904 1.6004C10.1383 1.55724 10.0728 1.53362 10.0052 1.53362C9.9376 1.53362 9.87212 1.55724 9.82008 1.6004C9.76804 1.64357 9.73272 1.70356 9.72021 1.77V9.77C9.72021 9.84426 9.74971 9.91548 9.80223 9.96799C9.85474 10.0205 9.92595 10.05 10.0002 10.05Z" fill="#232020"/>
<path d="M10.0001 13.37C10.226 13.372 10.4474 13.3068 10.6362 13.1828C10.825 13.0587 10.9726 12.8814 11.0604 12.6732C11.1483 12.4651 11.1723 12.2356 11.1294 12.0138C11.0866 11.792 10.9788 11.5879 10.8198 11.4275C10.6607 11.2671 10.4576 11.1575 10.2362 11.1127C10.0148 11.0679 9.78509 11.0899 9.5762 11.1759C9.36731 11.2618 9.18867 11.4079 9.06296 11.5956C8.93725 11.7833 8.87013 12.0041 8.87012 12.23C8.87011 12.5306 8.98884 12.8191 9.20047 13.0326C9.41211 13.2461 9.69951 13.3674 10.0001 13.37ZM10.0001 11.67C10.1496 11.67 10.2931 11.7287 10.3997 11.8334C10.5063 11.9381 10.5675 12.0806 10.5701 12.23C10.5675 12.3804 10.5067 12.5239 10.4003 12.6302C10.294 12.7365 10.1505 12.7974 10.0001 12.8C9.85068 12.7974 9.70826 12.7362 9.60352 12.6296C9.49877 12.5229 9.44009 12.3795 9.44012 12.23C9.44012 12.0815 9.49912 11.939 9.60414 11.834C9.70916 11.729 9.8516 11.67 10.0001 11.67Z" fill="#232020"/>
</g>
<defs>
<clipPath id="clip0_287_8368">
<rect width="19.94" height="19.64" fill="white"/>
</clipPath>
</defs>
</svg>
